<mxfile host="app.diagrams.net" agent="Mozilla/5.0 (Windows NT 10.0; Win64; x64) AppleWebKit/537.36 (KHTML, like Gecko) Chrome/128.0.0.0 Safari/537.36" version="24.7.10">
  <diagram name="Page-1" id="t6Nh8i725uTmT7j1fXuJ">
    <mxGraphModel dx="1728" dy="922" grid="1" gridSize="10" guides="1" tooltips="1" connect="1" arrows="1" fold="1" page="1" pageScale="1" pageWidth="850" pageHeight="1100" math="0" shadow="0">
      <root>
        <mxCell id="0" />
        <mxCell id="1" parent="0" />
        <mxCell id="HbAws9196qEBHbhDMuGA-1" value="Calculate Total Cost" style="swimlane;whiteSpace=wrap;html=1;" vertex="1" parent="1">
          <mxGeometry x="10" y="140" width="380" height="800" as="geometry" />
        </mxCell>
        <mxCell id="HbAws9196qEBHbhDMuGA-15" value="" style="edgeStyle=orthogonalEdgeStyle;rounded=0;orthogonalLoop=1;jettySize=auto;html=1;" edge="1" parent="HbAws9196qEBHbhDMuGA-1" source="HbAws9196qEBHbhDMuGA-2" target="HbAws9196qEBHbhDMuGA-3">
          <mxGeometry relative="1" as="geometry" />
        </mxCell>
        <mxCell id="HbAws9196qEBHbhDMuGA-2" value="&lt;b&gt;Cart&lt;/b&gt;" style="shape=parallelogram;perimeter=parallelogramPerimeter;whiteSpace=wrap;html=1;fixedSize=1;" vertex="1" parent="HbAws9196qEBHbhDMuGA-1">
          <mxGeometry x="30" y="30" width="120" height="60" as="geometry" />
        </mxCell>
        <mxCell id="HbAws9196qEBHbhDMuGA-27" value="" style="edgeStyle=orthogonalEdgeStyle;rounded=0;orthogonalLoop=1;jettySize=auto;html=1;" edge="1" parent="HbAws9196qEBHbhDMuGA-1" source="HbAws9196qEBHbhDMuGA-3" target="HbAws9196qEBHbhDMuGA-22">
          <mxGeometry relative="1" as="geometry" />
        </mxCell>
        <mxCell id="HbAws9196qEBHbhDMuGA-3" value="Start" style="ellipse;whiteSpace=wrap;html=1;fillColor=#d5e8d4;strokeColor=#82b366;" vertex="1" parent="HbAws9196qEBHbhDMuGA-1">
          <mxGeometry x="30" y="120" width="120" height="80" as="geometry" />
        </mxCell>
        <mxCell id="HbAws9196qEBHbhDMuGA-5" value="&lt;b&gt;Cost&lt;/b&gt;" style="shape=parallelogram;perimeter=parallelogramPerimeter;whiteSpace=wrap;html=1;fixedSize=1;" vertex="1" parent="HbAws9196qEBHbhDMuGA-1">
          <mxGeometry x="235" y="610" width="120" height="60" as="geometry" />
        </mxCell>
        <mxCell id="HbAws9196qEBHbhDMuGA-25" value="Yes" style="edgeStyle=orthogonalEdgeStyle;rounded=0;orthogonalLoop=1;jettySize=auto;html=1;" edge="1" parent="HbAws9196qEBHbhDMuGA-1" source="HbAws9196qEBHbhDMuGA-7" target="HbAws9196qEBHbhDMuGA-24">
          <mxGeometry relative="1" as="geometry" />
        </mxCell>
        <mxCell id="HbAws9196qEBHbhDMuGA-33" value="" style="edgeStyle=orthogonalEdgeStyle;rounded=0;orthogonalLoop=1;jettySize=auto;html=1;" edge="1" parent="HbAws9196qEBHbhDMuGA-1" source="HbAws9196qEBHbhDMuGA-7" target="HbAws9196qEBHbhDMuGA-32">
          <mxGeometry relative="1" as="geometry" />
        </mxCell>
        <mxCell id="HbAws9196qEBHbhDMuGA-7" value="Is there a&lt;br&gt;&lt;b&gt;Current Item?&lt;/b&gt;" style="rhombus;whiteSpace=wrap;html=1;" vertex="1" parent="HbAws9196qEBHbhDMuGA-1">
          <mxGeometry x="27.5" y="370" width="125" height="80" as="geometry" />
        </mxCell>
        <mxCell id="HbAws9196qEBHbhDMuGA-11" value="" style="edgeStyle=orthogonalEdgeStyle;rounded=0;orthogonalLoop=1;jettySize=auto;html=1;" edge="1" parent="HbAws9196qEBHbhDMuGA-1" source="HbAws9196qEBHbhDMuGA-8" target="HbAws9196qEBHbhDMuGA-10">
          <mxGeometry relative="1" as="geometry" />
        </mxCell>
        <mxCell id="HbAws9196qEBHbhDMuGA-8" value="Remove &lt;b&gt;Current Item&lt;/b&gt; from &lt;b&gt;Cart&lt;/b&gt;" style="rounded=1;whiteSpace=wrap;html=1;" vertex="1" parent="HbAws9196qEBHbhDMuGA-1">
          <mxGeometry x="30" y="600" width="120" height="60" as="geometry" />
        </mxCell>
        <mxCell id="HbAws9196qEBHbhDMuGA-31" style="edgeStyle=orthogonalEdgeStyle;rounded=0;orthogonalLoop=1;jettySize=auto;html=1;exitX=0.5;exitY=1;exitDx=0;exitDy=0;" edge="1" parent="HbAws9196qEBHbhDMuGA-1" source="HbAws9196qEBHbhDMuGA-10" target="HbAws9196qEBHbhDMuGA-28">
          <mxGeometry relative="1" as="geometry">
            <Array as="points">
              <mxPoint x="90" y="790" />
              <mxPoint x="10" y="790" />
              <mxPoint x="10" y="330" />
            </Array>
          </mxGeometry>
        </mxCell>
        <mxCell id="HbAws9196qEBHbhDMuGA-10" value="Set &lt;b&gt;Current Item&lt;/b&gt;&amp;nbsp;to next item in &lt;b&gt;Cart&lt;/b&gt;" style="whiteSpace=wrap;html=1;rounded=1;" vertex="1" parent="HbAws9196qEBHbhDMuGA-1">
          <mxGeometry x="30" y="710" width="120" height="60" as="geometry" />
        </mxCell>
        <mxCell id="HbAws9196qEBHbhDMuGA-29" style="edgeStyle=orthogonalEdgeStyle;rounded=0;orthogonalLoop=1;jettySize=auto;html=1;exitX=0.5;exitY=1;exitDx=0;exitDy=0;" edge="1" parent="HbAws9196qEBHbhDMuGA-1" source="HbAws9196qEBHbhDMuGA-22" target="HbAws9196qEBHbhDMuGA-28">
          <mxGeometry relative="1" as="geometry" />
        </mxCell>
        <mxCell id="HbAws9196qEBHbhDMuGA-22" value="Set &lt;b&gt;Current Item&lt;/b&gt;&amp;nbsp;to first item in cart" style="rounded=1;whiteSpace=wrap;html=1;" vertex="1" parent="HbAws9196qEBHbhDMuGA-1">
          <mxGeometry x="30" y="230" width="120" height="60" as="geometry" />
        </mxCell>
        <mxCell id="HbAws9196qEBHbhDMuGA-26" value="" style="edgeStyle=orthogonalEdgeStyle;rounded=0;orthogonalLoop=1;jettySize=auto;html=1;" edge="1" parent="HbAws9196qEBHbhDMuGA-1" source="HbAws9196qEBHbhDMuGA-24" target="HbAws9196qEBHbhDMuGA-8">
          <mxGeometry relative="1" as="geometry" />
        </mxCell>
        <mxCell id="HbAws9196qEBHbhDMuGA-24" value="Add &lt;b&gt;Current Item: Price&lt;/b&gt;&amp;nbsp;to running total" style="rounded=1;whiteSpace=wrap;html=1;" vertex="1" parent="HbAws9196qEBHbhDMuGA-1">
          <mxGeometry x="30" y="490" width="120" height="60" as="geometry" />
        </mxCell>
        <mxCell id="HbAws9196qEBHbhDMuGA-30" style="edgeStyle=orthogonalEdgeStyle;rounded=0;orthogonalLoop=1;jettySize=auto;html=1;" edge="1" parent="HbAws9196qEBHbhDMuGA-1" source="HbAws9196qEBHbhDMuGA-28" target="HbAws9196qEBHbhDMuGA-7">
          <mxGeometry relative="1" as="geometry" />
        </mxCell>
        <mxCell id="HbAws9196qEBHbhDMuGA-28" value="" style="ellipse;whiteSpace=wrap;html=1;aspect=fixed;" vertex="1" parent="HbAws9196qEBHbhDMuGA-1">
          <mxGeometry x="70" y="310" width="40" height="40" as="geometry" />
        </mxCell>
        <mxCell id="HbAws9196qEBHbhDMuGA-35" value="" style="edgeStyle=orthogonalEdgeStyle;rounded=0;orthogonalLoop=1;jettySize=auto;html=1;" edge="1" parent="HbAws9196qEBHbhDMuGA-1" source="HbAws9196qEBHbhDMuGA-32" target="HbAws9196qEBHbhDMuGA-34">
          <mxGeometry relative="1" as="geometry" />
        </mxCell>
        <mxCell id="HbAws9196qEBHbhDMuGA-32" value="Set &lt;b&gt;Cost&lt;/b&gt;&amp;nbsp;to &lt;b&gt;Running Total&lt;/b&gt;" style="rounded=1;whiteSpace=wrap;html=1;" vertex="1" parent="HbAws9196qEBHbhDMuGA-1">
          <mxGeometry x="235" y="380" width="120" height="60" as="geometry" />
        </mxCell>
        <mxCell id="HbAws9196qEBHbhDMuGA-36" value="" style="edgeStyle=orthogonalEdgeStyle;rounded=0;orthogonalLoop=1;jettySize=auto;html=1;" edge="1" parent="HbAws9196qEBHbhDMuGA-1" source="HbAws9196qEBHbhDMuGA-34" target="HbAws9196qEBHbhDMuGA-5">
          <mxGeometry relative="1" as="geometry" />
        </mxCell>
        <mxCell id="HbAws9196qEBHbhDMuGA-34" value="End" style="ellipse;whiteSpace=wrap;html=1;fillColor=#f8cecc;strokeColor=#b85450;" vertex="1" parent="HbAws9196qEBHbhDMuGA-1">
          <mxGeometry x="235" y="490" width="120" height="80" as="geometry" />
        </mxCell>
      </root>
    </mxGraphModel>
  </diagram>
</mxfile>
